<?xml version="1.0" encoding="UTF-8" standalone="no"?>
<!-- Created with Inkscape (http://www.inkscape.org/) -->

<svg
   xmlns:dc="http://purl.org/dc/elements/1.1/"
   xmlns:cc="http://creativecommons.org/ns#"
   xmlns:rdf="http://www.w3.org/1999/02/22-rdf-syntax-ns#"
   xmlns:svg="http://www.w3.org/2000/svg"
   xmlns="http://www.w3.org/2000/svg"
   xmlns:sodipodi="http://sodipodi.sourceforge.net/DTD/sodipodi-0.dtd"
   xmlns:inkscape="http://www.inkscape.org/namespaces/inkscape"
   width="480.06689"
   height="375.77252"
   id="svg2"
   version="1.1"
   inkscape:version="0.92.5 (2060ec1f9f, 2020-04-08)"
   sodipodi:docname="icon_save_ss2.svg">
  <defs
     id="defs4" />
  <sodipodi:namedview
     id="base"
     pagecolor="#ffffff"
     bordercolor="#666666"
     borderopacity="1.0"
     inkscape:pageopacity="0.0"
     inkscape:pageshadow="2"
     inkscape:zoom="0.35"
     inkscape:cx="365.36808"
     inkscape:cy="186.6025"
     inkscape:document-units="px"
     inkscape:current-layer="layer1"
     showgrid="false"
     fit-margin-top="0"
     fit-margin-left="0"
     fit-margin-right="0"
     fit-margin-bottom="0"
     inkscape:window-width="1865"
     inkscape:window-height="1056"
     inkscape:window-x="55"
     inkscape:window-y="24"
     inkscape:window-maximized="1" />
  <metadata
     id="metadata7">
    <rdf:RDF>
      <cc:Work
         rdf:about="">
        <dc:format>image/svg+xml</dc:format>
        <dc:type
           rdf:resource="http://purl.org/dc/dcmitype/StillImage" />
        <dc:title />
      </cc:Work>
    </rdf:RDF>
  </metadata>
  <g
     inkscape:label="Layer 1"
     inkscape:groupmode="layer"
     id="layer1"
     transform="translate(-9.6319224,-343.19215)">
    <path
       style="fill:#fffffd;fill-opacity:1"
       d="m 239.21429,718.43819 c -14.85,-0.39033 -48.825,-0.46594 -75.5,-0.16801 -67.213623,0.7507 -92.796373,-0.79948 -107.577883,-6.51863 -14.3743,-5.5616 -31.80517,-20.62558 -37.14786,-32.10365 -6.00691,-12.90506 -7.35256,-19.72483 -8.28725,-42 -0.9149999,-21.80584 -1.4429099,-73.87743 -0.7559499,-74.5644 0.2254599,-0.22545 15.4123499,-0.43405 33.7486399,-0.46355 22.85039,-0.0368 33.68188,0.29019 34.42951,1.03926 0.7408,0.74223 0.98371,7.89449 0.75705,22.2908 -0.55505,35.25441 1.60141,43.98313 13.48229,54.57239 8.335223,7.42906 14.306603,8.96746 37.351453,9.62283 47.63749,1.35476 231.6981,0.23047 252.5,-1.54234 6.05,-0.5156 13.30973,-1.53679 16.13273,-2.26932 9.17618,-2.38107 15.53968,-9.08506 18.21659,-19.19129 1.71454,-6.47297 3.15203,-27.22246 3.24871,-46.8938 l 0.0901,-18.32763 9.65595,-0.64045 c 9.89579,-0.65636 58.0195,0.16514 59.39277,1.01387 0.41974,0.25942 0.75612,17.65761 0.7475,38.66265 -0.014,34.22741 -0.2216,39.16672 -2,47.59277 -1.0914,5.17098 -1.98435,10.35842 -1.98435,11.52764 0,2.47735 -6.19303,14.85334 -11.04427,22.07057 -8.74814,13.01468 -19.35693,22.65535 -31.85813,28.95085 -8.41466,4.23756 -16.31488,6.18558 -28.5976,7.05157 -12.94977,0.91301 -143.07386,1.12707 -175,0.28787 z m 2.22632,-124.05402 c -8.3942,-8.44463 -23.53863,-25.73487 -34.80479,-39.73627 -10.34646,-12.85841 -27.17996,-33.0794 -30.76922,-36.96106 -5.78838,-6.25991 -6.40357,-6.03894 16.81251,-6.03894 11.56935,0 21.04412,-0.3375 21.05504,-0.75 0.0109,-0.4125 0.0649,-36.84831 0.11985,-80.96848 0.055,-44.12016 0.39778,-81.67447 0.76173,-83.45402 l 0.66175,-3.23555 32.8139,-0.046 c 20.82461,-0.0292 33.05304,0.3194 33.46841,0.95403 0.35997,0.55 0.6545,11.35 0.6545,24 0,12.65 0.1125,49.8875 0.25,82.75 l 0.25,59.75002 20.03518,0 20.03519,0 -1.17895,2.25 c -2.35655,4.49743 -36.36924,46.86679 -46.79278,58.28942 -2.52925,2.77168 -9.21807,10.53418 -14.86404,17.25 -5.64597,6.71582 -10.71912,12.21058 -11.27368,12.21058 -0.55455,0 -3.81012,-2.81868 -7.2346,-6.26373 z"
       id="path2996"
       inkscape:connector-curvature="0" />
  </g>
</svg>
