<?xml version="1.0" encoding="UTF-8" standalone="no"?>
<!-- Created with Inkscape (http://www.inkscape.org/) -->

<svg
   xmlns:dc="http://purl.org/dc/elements/1.1/"
   xmlns:cc="http://creativecommons.org/ns#"
   xmlns:rdf="http://www.w3.org/1999/02/22-rdf-syntax-ns#"
   xmlns:svg="http://www.w3.org/2000/svg"
   xmlns="http://www.w3.org/2000/svg"
   xmlns:sodipodi="http://sodipodi.sourceforge.net/DTD/sodipodi-0.dtd"
   xmlns:inkscape="http://www.inkscape.org/namespaces/inkscape"
   width="534.3252"
   height="352.95438"
   id="svg2"
   version="1.1"
   inkscape:version="0.92.5 (2060ec1f9f, 2020-04-08)"
   sodipodi:docname="icon_open_ss2.svg">
  <defs
     id="defs4" />
  <sodipodi:namedview
     id="base"
     pagecolor="#ffffff"
     bordercolor="#666666"
     borderopacity="1.0"
     inkscape:pageopacity="0.0"
     inkscape:pageshadow="2"
     inkscape:zoom="0.12374369"
     inkscape:cx="308.39467"
     inkscape:cy="258.64856"
     inkscape:document-units="px"
     inkscape:current-layer="layer1"
     showgrid="false"
     fit-margin-top="0"
     fit-margin-left="0"
     fit-margin-right="0"
     fit-margin-bottom="0"
     inkscape:window-width="1865"
     inkscape:window-height="1056"
     inkscape:window-x="55"
     inkscape:window-y="24"
     inkscape:window-maximized="1" />
  <metadata
     id="metadata7">
    <rdf:RDF>
      <cc:Work
         rdf:about="">
        <dc:format>image/svg+xml</dc:format>
        <dc:type
           rdf:resource="http://purl.org/dc/dcmitype/StillImage" />
        <dc:title />
      </cc:Work>
    </rdf:RDF>
  </metadata>
  <g
     inkscape:label="Layer 1"
     inkscape:groupmode="layer"
     id="layer1"
     transform="translate(-66.605329,-438.05637)">
    <path
       style="fill:#ffffff;fill-opacity:1"
       d="m 435.07143,790.34311 c -53.68285,-2.30033 -118.37225,-3.6382 -240.94071,-4.98299 -111.49639,-1.22332 -110.39539,-1.14763 -117.93261,-8.10725 -9.27914,-8.56806 -9.24539,-8.05979 -8.7893,-132.3907 0.20781,-56.65 7.7e-4,-112.225 -0.46008,-123.5 -0.98294,-24.04777 0.22227,-53.38567 2.62046,-63.78897 2.44848,-10.62143 6.20374,-15.15755 14.55185,-17.57772 6.04802,-1.75336 11.34711,-1.87405 84.95039,-1.93476 56.25722,-0.0464 80.7498,0.27511 86.44008,1.13472 8.66191,1.30852 14.77611,4.25808 18.84127,9.08924 3.07518,3.65465 5.34879,13.85858 6.12239,27.4772 0.30929,5.44484 0.78616,10.12353 1.05972,10.39708 0.86264,0.86264 128.41868,0.72676 166.03654,-0.17688 40.31187,-0.96835 47.54352,-0.44315 56.45479,4.10004 4.54778,2.31857 6.08483,3.81215 8.54521,8.30357 l 3,5.47648 -0.15111,26.12763 -0.1511,26.12763 4.54067,0.62237 c 2.49738,0.3423 10.23611,0.62237 17.19719,0.62237 22.43716,0 54.25626,1.99992 57.68525,3.62567 4.73852,2.24664 6.8095,6.91517 6.10324,13.75826 -0.73607,7.13176 -9.87949,27.56705 -36.74146,82.11607 -61.04948,123.97417 -62.39871,126.48782 -70.64568,131.61467 -3.64678,2.26708 -4.72933,2.39211 -21.837,2.52217 -9.9,0.0753 -26.325,-0.2199 -36.5,-0.6559 z M 126.32448,675.86217 c 59.29065,-123.4383 58.73596,-122.39436 67.1295,-126.33979 6.0653,-2.85102 0.46324,-2.93036 160.11745,2.26761 73.7,2.3995 134.14991,4.22244 134.33314,4.05098 0.18323,-0.17147 0.58523,-8.11316 0.89333,-17.64822 l 0.56018,-17.33646 -2.6396,-3.13699 c -5.54359,-6.58819 0.36522,-6.26287 -115.04723,-6.33406 -57.51823,-0.0355 -105.59587,-0.45743 -106.8392,-0.93769 -2.18809,-0.84517 -5.65658,-4.17021 -7.22992,-6.93093 -0.42176,-0.74005 -1.09814,-8.48147 -1.50306,-17.20315 -0.82678,-17.80808 -1.71509,-20.43064 -7.27007,-21.46356 -4.85734,-0.9032 -150.98838,-0.0942 -152.91601,0.84658 -0.91215,0.44517 -2.12637,2.01456 -2.69827,3.48754 -0.66978,1.72508 -1.23737,30.25774 -1.59493,80.17814 -0.30531,42.625 -0.82472,105.4 -1.15424,139.5 -0.32953,34.1 -0.39351,61.775 -0.14218,61.5 0.25133,-0.275 16.45183,-33.8 36.00111,-74.5 z"
       id="path2996"
       inkscape:connector-curvature="0" />
  </g>
</svg>
