<?xml version="1.0" encoding="UTF-8" standalone="no"?>
<!-- Created with Inkscape (http://www.inkscape.org/) -->

<svg
   xmlns:dc="http://purl.org/dc/elements/1.1/"
   xmlns:cc="http://creativecommons.org/ns#"
   xmlns:rdf="http://www.w3.org/1999/02/22-rdf-syntax-ns#"
   xmlns:svg="http://www.w3.org/2000/svg"
   xmlns="http://www.w3.org/2000/svg"
   xmlns:sodipodi="http://sodipodi.sourceforge.net/DTD/sodipodi-0.dtd"
   xmlns:inkscape="http://www.inkscape.org/namespaces/inkscape"
   width="474.40393"
   height="591.78717"
   id="svg2"
   version="1.1"
   inkscape:version="0.92.5 (2060ec1f9f, 2020-04-08)"
   sodipodi:docname="icon_trash_ss2.svg">
  <defs
     id="defs4" />
  <sodipodi:namedview
     id="base"
     pagecolor="#ffffff"
     bordercolor="#666666"
     borderopacity="1.0"
     inkscape:pageopacity="0.0"
     inkscape:pageshadow="2"
     inkscape:zoom="0.35"
     inkscape:cx="365.90569"
     inkscape:cy="401.84671"
     inkscape:document-units="px"
     inkscape:current-layer="layer1"
     showgrid="false"
     fit-margin-top="0"
     fit-margin-left="0"
     fit-margin-right="0"
     fit-margin-bottom="0"
     inkscape:window-width="1865"
     inkscape:window-height="1056"
     inkscape:window-x="55"
     inkscape:window-y="24"
     inkscape:window-maximized="1" />
  <metadata
     id="metadata7">
    <rdf:RDF>
      <cc:Work
         rdf:about="">
        <dc:format>image/svg+xml</dc:format>
        <dc:type
           rdf:resource="http://purl.org/dc/dcmitype/StillImage" />
        <dc:title />
      </cc:Work>
    </rdf:RDF>
  </metadata>
  <g
     inkscape:label="Layer 1"
     inkscape:groupmode="layer"
     id="layer1"
     transform="translate(-9.0943104,-342.4217)">
    <path
       style="fill:#ffffff;fill-opacity:1"
       d="m 293.5,933.60504 c -4.125,-0.56542 -26.625,-1.12762 -50,-1.24934 -23.375,-0.12172 -52.175,-0.5673 -64,-0.99017 -12.38073,-0.44275 -24.68114,-0.37639 -29,0.15645 -10.93934,1.34964 -24.42486,0.0698 -30.10927,-2.85755 -10.11309,-5.20801 -18.24437,-15.75696 -19.45332,-25.23739 -0.21997,-1.72495 -1.3225,-11.46128 -2.45008,-21.63628 -1.12758,-10.175 -2.68221,-23.45 -3.45473,-29.5 -0.77252,-6.05 -2.3638,-19.325 -3.53616,-29.5 -1.17237,-10.175 -3.90765,-29.975 -6.07841,-44 -2.17076,-14.025 -4.4143,-29.1 -4.98564,-33.5 -0.57134,-4.4 -2.1187,-13.85 -3.43857,-21 -1.31986,-7.15 -3.13,-19.525 -4.02252,-27.5 -0.89252,-7.975 -2.50397,-20.575 -3.58101,-28 -1.07703,-7.425 -3.93784,-27.225 -6.35735,-44 -2.41951,-16.775 -5.75849,-39.05 -7.41996,-49.5 -1.66146,-10.45 -3.51237,-23.725 -4.11312,-29.5 -0.60075,-5.775 -1.28246,-11.175 -1.51492,-12 -0.23245,-0.825 -1.7913,-12.38778 -3.4641,-25.69506 -1.67279,-13.30729 -3.3058,-24.88397 -3.6289,-25.72595 -0.49311,-1.28502 -2.82022,-1.50267 -14.48997,-1.35521 -8.60011,0.10868 -14.30236,-0.22417 -14.9509,-0.87271 -0.57662,-0.57662 -1.48655,-5.279 -2.02207,-10.44973 -0.53553,-5.17074 -1.35275,-12.77634 -1.81605,-16.90134 -0.4633,-4.125 -0.65169,-7.8375 -0.41864,-8.25 0.23305,-0.4125 6.40502,-0.75 13.71548,-0.75 7.44477,0 14.74423,-0.50633 16.5936,-1.15102 2.5131,-0.87608 7.06627,-0.84614 19.06085,0.12534 10.04769,0.81379 20.6339,1.01527 29.21008,0.55593 l 13.45106,-0.72043 0.71002,-21.65491 c 1.01185,-30.86012 1.35017,-34.77571 3.41009,-39.46724 1.01128,-2.30322 2.44139,-5.76267 3.17804,-7.68767 4.13463,-10.80465 11.07221,-17.51449 24.3617,-23.56199 11.15026,-5.07403 45.08233,-8.38626 79.11477,-7.72267 13.2,0.25738 40.875,0.54047 61.5,0.62907 46.19585,0.19847 58.36005,1.30099 68.01861,6.16496 12.6456,6.36822 23.46164,22.07398 27.64,40.13549 2.33376,10.08798 2.46688,12.02124 1.88363,27.35514 -0.34518,9.075 -0.84909,18.075 -1.1198,20 -0.27071,1.925 -0.0914,4.09661 0.39855,4.82581 0.71971,1.07123 11.67081,1.35925 57.03313,1.5 50.65684,0.15717 56.14255,0.33008 56.14413,1.76964 0.004,3.7014 -4.19455,32.46567 -4.83479,33.12272 -0.38489,0.39499 -5.72536,1.0234 -11.86772,1.39646 l -11.16792,0.67829 -0.56731,6.60354 c -0.53495,6.22686 -1.90864,14.74571 -6.54744,40.60354 -1.08535,6.05 -2.23894,14.375 -2.56353,18.5 -0.3246,4.125 -1.63325,14.475 -2.90812,23 -1.27486,8.525 -2.85387,19.325 -3.50889,24 -0.65502,4.675 -2.7174,17.05 -4.58307,27.5 -1.86566,10.45 -4.51792,27.79183 -5.8939,38.5374 -1.37598,10.74558 -4.06408,28.29558 -5.97355,39 -3.0169,16.91257 -10.26863,61.38354 -16.6267,101.9626 -1.0772,6.875 -3.07981,21.5 -4.45025,32.5 -1.37043,11 -2.71938,20.97705 -2.99766,22.17123 -0.27828,1.19418 -0.94157,6.59418 -1.47397,12 -1.12468,11.41947 -3.60149,26.08719 -5.37675,31.84116 -1.88767,6.11829 -10.60773,20.27407 -15.70853,25.50056 -5.48372,5.61885 -10.93171,7.69591 -23.44815,8.9397 -14.61998,1.45282 -51.31061,1.98414 -59.5,0.86163 z m 51.10024,-132.88566 c 1.61147,-1.14746 3.56443,-3.31328 4.33993,-4.81292 1.64678,-3.18452 5.62193,-23.01663 12.04959,-60.1157 2.52522,-14.575 5.903,-33.7 7.50617,-42.5 1.60318,-8.8 3.63396,-20.275 4.51285,-25.5 1.99526,-11.86179 10.28711,-51.94827 16.6033,-80.26768 2.28138,-10.22886 1.59917,-14.76102 -2.84613,-18.90776 -3.93641,-3.67204 -6.57667,-4.82456 -11.05233,-4.82456 -4.87843,0 -9.90421,3.25999 -12.33322,8 -0.98646,1.925 -2.92391,9.125 -4.30543,16 -1.38152,6.875 -4.77226,23.075 -7.53497,36 -4.86225,22.74742 -7.02792,34.42828 -18.63307,100.5 -2.99474,17.05 -6.78642,38.00618 -8.42596,46.56928 -3.62431,18.92937 -3.67772,21.44108 -0.55374,26.03844 4.74167,6.97799 13.86992,8.66513 20.67301,3.8209 z m -180.89248,-4.78569 c 2.04243,-2.1896 4.02105,-5.2064 4.39692,-6.704 0.4137,-1.64828 -0.97315,-12.43474 -3.51402,-27.33092 -6.25474,-36.6693 -10.40981,-64.2451 -13.5773,-90.10801 -0.90936,-7.425 -2.95499,-21.825 -4.54585,-32 -1.59086,-10.175 -4.08568,-29.525 -5.54404,-43 -2.86728,-26.49318 -3.5298,-28.80724 -9.37542,-32.7466 -6.70503,-4.51852 -17.04752,-1.97935 -20.74528,5.09314 -0.90681,1.7344 -1.60822,5.17846 -1.5587,7.65346 0.16437,8.2155 5.39909,53.16441 7.76524,66.67771 0.84962,4.85226 3.08906,20.52229 4.97652,34.82229 3.41338,25.86076 4.29336,31.99128 9.11492,63.5 2.79689,18.27758 6.972,41.59675 8.41497,47 1.36584,5.11445 3.72266,7.97052 8.36678,10.13914 6.21971,2.90437 11.20098,1.96126 15.82526,-2.99621 z m 92.72278,-1.60701 c 1.55718,-0.80525 4.06158,-2.92628 5.56535,-4.71341 l 2.73413,-3.24932 -0.63398,-60.53659 c -0.34869,-33.29513 -0.65933,-74.0366 -0.69031,-90.5366 -0.031,-16.5 -0.37192,-36.46011 -0.75763,-44.35579 l -0.70129,-14.35579 -3.1701,-2.83249 c -8.19161,-7.3192 -19.76408,-4.96217 -23.95447,4.87894 -1.58672,3.72641 -1.76843,26.94673 -0.82295,105.16513 1.31744,108.98997 0.97462,104.07804 7.62989,109.32188 3.90172,3.07425 10.20441,3.59121 14.80136,1.21404 z M 321,428.79076 c 0,-13.19904 -0.1973,-14.81722 -2.19908,-18.03565 -2.34808,-3.77519 -12.68125,-10.19556 -19.17205,-11.91228 -9.76476,-2.58262 -29.33165,-5.2767 -44.62887,-6.14474 -17.45216,-0.99033 -66.08126,0.32138 -77.66272,2.09485 -12.88557,1.97317 -20.84537,8.19522 -23.5778,18.4304 -0.74405,2.78708 -1.62423,9.90492 -1.95596,15.81742 l -0.60314,10.75 22.89981,0.0248 c 36.96262,0.0401 117.12857,2.49006 118.34276,3.61672 0.24362,0.22605 6.76862,0.28668 14.5,0.13473 L 321,443.29076 l 0,-14.5 z"
       id="path2996"
       inkscape:connector-curvature="0" />
  </g>
</svg>
